<svg width="700" height="546" viewBox="0 0 700 546" fill="none" xmlns="http://www.w3.org/2000/svg">
<g id="undraw_map_1r69 1">
<g clip-path="url(#clip0)">
<g id="shadows">
<path id="Vector" opacity="0.1" d="M684.626 543.963C690.542 538.308 683.695 522.593 669.334 508.864C654.974 495.135 638.537 488.59 632.621 494.245C626.706 499.9 633.552 515.614 647.913 529.343C662.274 543.073 678.711 549.618 684.626 543.963Z" fill="#F9A826"/>
<path id="Vector_2" opacity="0.1" d="M391.928 540.469C404.785 535.176 413.358 526.78 411.077 521.716C408.796 516.652 396.525 516.839 383.668 522.132C370.811 527.426 362.238 535.822 364.519 540.886C366.8 545.949 379.071 545.763 391.928 540.469Z" fill="#F9A826"/>
<path id="Vector_3" opacity="0.1" d="M62.5211 528.024C68.4364 522.369 61.59 506.655 47.2292 492.926C32.8684 479.196 16.4314 472.651 10.516 478.306C4.60067 483.962 11.447 499.676 25.8078 513.405C40.1686 527.134 56.6057 533.68 62.5211 528.024Z" fill="#F9A826"/>
</g>
<g id="map">
<path id="Vector_4" d="M641.783 0V521.58L456.894 496.95L232.141 540.784L230.33 541.139L51.5036 494.052V40.5673L237.15 0L440.224 40.5673L447.945 39.0098L641.783 0Z" fill="#444053"/>
<path id="Vector_5" d="M610.715 28.484V495.16L445.293 473.124L244.197 512.344L242.575 512.655L82.5709 470.53V64.7773L248.683 28.484L430.373 64.7773L437.284 63.3864L610.715 28.484Z" fill="white"/>
<path id="Vector_6" opacity="0.1" d="M456.894 496.95L232.141 540.784L237.15 0L440.224 40.5673L447.945 39.0098L456.894 496.95Z" fill="black"/>
</g>
<g id="lines" opacity="0.3">
<path id="Vector_7" opacity="0.3" d="M434.45 99.9695L434.541 251.735H500.464V189.435H613.368L626.628 173.179" stroke="#444053" stroke-width="3" stroke-miterlimit="10"/>
<path id="Vector_8" opacity="0.3" d="M67.4161 148.143H312.545L327.7 141.623H333.762V287.956H439.845L444.392 300.995V366.917H526.228V448.414" stroke="#444053" stroke-width="3" stroke-miterlimit="10"/>
<path id="Vector_9" opacity="0.3" d="M366.14 448.414V287.956" stroke="#444053" stroke-width="3" stroke-miterlimit="10"/>
<path id="Vector_10" opacity="0.3" d="M626.628 405.427H366.14" stroke="#444053" stroke-width="3" stroke-miterlimit="10"/>
<path id="Vector_11" opacity="0.3" d="M561.387 99.9695V448.414" stroke="#444053" stroke-width="3" stroke-miterlimit="10"/>
<path id="Vector_12" opacity="0.3" d="M66.6584 374.625H626.628" stroke="#444053" stroke-width="3" stroke-miterlimit="10"/>
<path id="Vector_13" opacity="0.3" d="M134.81 448.414V99.9695" stroke="#444053" stroke-width="3" stroke-miterlimit="10"/>
<path id="Vector_14" opacity="0.3" d="M264.974 99.9695V448.414" stroke="#444053" stroke-width="3" stroke-miterlimit="10"/>
<path id="Vector_15" opacity="0.3" d="M67.4161 187.986L500.465 189.435" stroke="#444053" stroke-width="3" stroke-miterlimit="10"/>
<path id="Vector_16" opacity="0.3" d="M193.451 100.6V448.414" stroke="#444053" stroke-width="3" stroke-miterlimit="10"/>
<path id="Vector_17" opacity="0.3" d="M66.6584 268.628H264.974L366.14 374.625" stroke="#444053" stroke-width="3" stroke-miterlimit="10"/>
<path id="Vector_18" opacity="0.3" d="M388.054 99.9695V287.956" stroke="#444053" stroke-width="3" stroke-miterlimit="10"/>
<path id="Vector_19" opacity="0.3" d="M366.14 321.626H626.628" stroke="#444053" stroke-width="3" stroke-miterlimit="10"/>
</g>
<path id="Vector_20" d="M444.013 320.192H367.481V288.318L439.845 287.956L444.392 300.271L444.013 320.192Z" fill="#F9A826"/>
<g id="local-icon">
<path id="Vector_21" d="M406.126 155.025C395.016 155.025 384.362 159.244 376.507 166.754C368.651 174.264 364.238 184.45 364.238 195.071C364.238 217.187 406.126 289.042 406.126 289.042C406.126 289.042 448.014 217.216 448.014 195.071C448.014 184.45 443.6 174.264 435.745 166.754C427.89 159.244 417.235 155.025 406.126 155.025V155.025ZM406.126 212.153C402.481 212.153 398.918 211.119 395.888 209.183C392.857 207.248 390.495 204.496 389.1 201.277C387.706 198.058 387.341 194.515 388.052 191.098C388.763 187.68 390.518 184.541 393.095 182.077C395.672 179.613 398.956 177.935 402.531 177.256C406.105 176.576 409.811 176.925 413.178 178.258C416.545 179.592 419.423 181.85 421.448 184.747C423.473 187.644 424.554 191.05 424.554 194.535C424.552 199.206 422.61 203.685 419.154 206.988C415.698 210.29 411.012 212.145 406.126 212.145V212.153Z" fill="#F9A826"/>
<path id="Vector_22" opacity="0.1" d="M406.126 155.025C395.016 155.025 384.362 159.244 376.507 166.754C368.651 174.264 364.238 184.45 364.238 195.071C364.238 217.187 406.126 289.042 406.126 289.042C406.126 289.042 448.014 217.216 448.014 195.071C448.014 184.45 443.6 174.264 435.745 166.754C427.89 159.244 417.235 155.025 406.126 155.025V155.025ZM406.126 212.153C402.481 212.153 398.918 211.119 395.888 209.183C392.857 207.248 390.495 204.496 389.1 201.277C387.706 198.058 387.341 194.515 388.052 191.098C388.763 187.68 390.518 184.541 393.095 182.077C395.672 179.613 398.956 177.935 402.531 177.256C406.105 176.576 409.811 176.925 413.178 178.258C416.545 179.592 419.423 181.85 421.448 184.747C423.473 187.644 424.554 191.05 424.554 194.535C424.552 199.206 422.61 203.685 419.154 206.988C415.698 210.29 411.012 212.145 406.126 212.145V212.153Z" fill="black"/>
<path id="Vector_23" d="M406.126 160.82C395.016 160.82 384.362 165.04 376.507 172.55C368.651 180.06 364.238 190.245 364.238 200.866C364.238 222.983 406.126 294.838 406.126 294.838C406.126 294.838 448.014 223.012 448.014 200.866C448.014 190.245 443.6 180.06 435.745 172.55C427.89 165.04 417.235 160.82 406.126 160.82V160.82ZM406.126 217.948C402.481 217.948 398.918 216.915 395.888 214.979C392.857 213.043 390.495 210.291 389.1 207.072C387.706 203.853 387.341 200.311 388.052 196.893C388.763 193.476 390.518 190.336 393.095 187.872C395.672 185.409 398.956 183.731 402.531 183.051C406.105 182.371 409.811 182.72 413.178 184.053C416.545 185.387 419.423 187.645 421.448 190.542C423.473 193.439 424.554 196.846 424.554 200.33C424.552 205.001 422.61 209.481 419.154 212.783C415.698 216.086 411.012 217.941 406.126 217.941V217.948Z" fill="#F9A826"/>
</g>
<g id="Group 1">
<path id="Vector_24" d="M661.226 521.399C665.717 521.399 669.357 516.842 669.357 511.221C669.357 505.6 665.717 501.043 661.226 501.043C656.736 501.043 653.096 505.6 653.096 511.221C653.096 516.842 656.736 521.399 661.226 521.399Z" fill="#3F3D56"/>
<path id="Vector_25" d="M661.226 508.961C665.717 508.961 669.357 504.404 669.357 498.783C669.357 493.161 665.717 488.604 661.226 488.604C656.736 488.604 653.096 493.161 653.096 498.783C653.096 504.404 656.736 508.961 661.226 508.961Z" fill="#3F3D56"/>
<path id="Vector_26" d="M661.226 496.522C665.717 496.522 669.357 491.965 669.357 486.344C669.357 480.723 665.717 476.166 661.226 476.166C656.736 476.166 653.096 480.723 653.096 486.344C653.096 491.965 656.736 496.522 661.226 496.522Z" fill="#3F3D56"/>
<path id="Vector_27" d="M661.226 484.084C665.717 484.084 669.357 479.527 669.357 473.906C669.357 468.285 665.717 463.728 661.226 463.728C656.736 463.728 653.096 468.285 653.096 473.906C653.096 479.527 656.736 484.084 661.226 484.084Z" fill="#3F3D56"/>
<path id="Vector_28" d="M661.226 471.646C665.717 471.646 669.357 467.089 669.357 461.468C669.357 455.847 665.717 451.29 661.226 451.29C656.736 451.29 653.096 455.847 653.096 461.468C653.096 467.089 656.736 471.646 661.226 471.646Z" fill="#3F3D56"/>
<path id="Vector_29" d="M661.226 459.208C665.717 459.208 669.357 454.651 669.357 449.03C669.357 443.408 665.717 438.852 661.226 438.852C656.736 438.852 653.096 443.408 653.096 449.03C653.096 454.651 656.736 459.208 661.226 459.208Z" fill="#3F3D56"/>
<path id="Vector_30" d="M661.226 446.769C665.717 446.769 669.357 442.213 669.357 436.591C669.357 430.97 665.717 426.413 661.226 426.413C656.736 426.413 653.096 430.97 653.096 436.591C653.096 442.213 656.736 446.769 661.226 446.769Z" fill="#3F3D56"/>
<path id="Vector_31" d="M387.501 534.366C390.597 534.366 393.108 531.226 393.108 527.354C393.108 523.481 390.597 520.341 387.501 520.341C384.404 520.341 381.893 523.481 381.893 527.354C381.893 531.226 384.404 534.366 387.501 534.366Z" fill="#3F3D56"/>
<path id="Vector_32" d="M387.501 525.789C390.597 525.789 393.108 522.649 393.108 518.776C393.108 514.904 390.597 511.764 387.501 511.764C384.404 511.764 381.893 514.904 381.893 518.776C381.893 522.649 384.404 525.789 387.501 525.789Z" fill="#3F3D56"/>
<path id="Vector_33" d="M387.501 517.219C390.597 517.219 393.108 514.079 393.108 510.207C393.108 506.334 390.597 503.194 387.501 503.194C384.404 503.194 381.893 506.334 381.893 510.207C381.893 514.079 384.404 517.219 387.501 517.219Z" fill="#3F3D56"/>
<path id="Vector_34" d="M387.501 508.649C390.597 508.649 393.108 505.51 393.108 501.637C393.108 497.764 390.597 494.624 387.501 494.624C384.404 494.624 381.893 497.764 381.893 501.637C381.893 505.51 384.404 508.649 387.501 508.649Z" fill="#3F3D56"/>
<path id="Vector_35" d="M387.501 500.072C390.597 500.072 393.108 496.932 393.108 493.06C393.108 489.187 390.597 486.047 387.501 486.047C384.404 486.047 381.893 489.187 381.893 493.06C381.893 496.932 384.404 500.072 387.501 500.072Z" fill="#3F3D56"/>
<path id="Vector_36" d="M387.501 491.502C390.597 491.502 393.108 488.363 393.108 484.49C393.108 480.617 390.597 477.477 387.501 477.477C384.404 477.477 381.893 480.617 381.893 484.49C381.893 488.363 384.404 491.502 387.501 491.502Z" fill="#3F3D56"/>
<path id="Vector_37" d="M387.501 482.932C390.597 482.932 393.108 479.793 393.108 475.92C393.108 472.047 390.597 468.908 387.501 468.908C384.404 468.908 381.893 472.047 381.893 475.92C381.893 479.793 384.404 482.932 387.501 482.932Z" fill="#3F3D56"/>
<path id="Vector_38" d="M39.1221 505.462C43.6125 505.462 47.2526 500.905 47.2526 495.284C47.2526 489.662 43.6125 485.106 39.1221 485.106C34.6317 485.106 30.9915 489.662 30.9915 495.284C30.9915 500.905 34.6317 505.462 39.1221 505.462Z" fill="#3F3D56"/>
<path id="Vector_39" d="M39.1221 493.023C43.6125 493.023 47.2526 488.467 47.2526 482.845C47.2526 477.224 43.6125 472.667 39.1221 472.667C34.6317 472.667 30.9915 477.224 30.9915 482.845C30.9915 488.467 34.6317 493.023 39.1221 493.023Z" fill="#3F3D56"/>
<path id="Vector_40" d="M39.1221 480.585C43.6125 480.585 47.2526 476.028 47.2526 470.407C47.2526 464.786 43.6125 460.229 39.1221 460.229C34.6317 460.229 30.9915 464.786 30.9915 470.407C30.9915 476.028 34.6317 480.585 39.1221 480.585Z" fill="#3F3D56"/>
<path id="Vector_41" d="M39.1221 468.147C43.6125 468.147 47.2526 463.59 47.2526 457.969C47.2526 452.348 43.6125 447.791 39.1221 447.791C34.6317 447.791 30.9915 452.348 30.9915 457.969C30.9915 463.59 34.6317 468.147 39.1221 468.147Z" fill="#3F3D56"/>
<path id="Vector_42" d="M39.1221 455.709C43.6125 455.709 47.2526 451.152 47.2526 445.531C47.2526 439.909 43.6125 435.353 39.1221 435.353C34.6317 435.353 30.9915 439.909 30.9915 445.531C30.9915 451.152 34.6317 455.709 39.1221 455.709Z" fill="#3F3D56"/>
<path id="Vector_43" d="M39.1221 443.271C43.6125 443.271 47.2526 438.714 47.2526 433.092C47.2526 427.471 43.6125 422.914 39.1221 422.914C34.6317 422.914 30.9915 427.471 30.9915 433.092C30.9915 438.714 34.6317 443.271 39.1221 443.271Z" fill="#3F3D56"/>
<path id="Vector_44" d="M39.1221 430.832C43.6125 430.832 47.2526 426.275 47.2526 420.654C47.2526 415.033 43.6125 410.476 39.1221 410.476C34.6317 410.476 30.9915 415.033 30.9915 420.654C30.9915 426.275 34.6317 430.832 39.1221 430.832Z" fill="#3F3D56"/>
</g>
<g id="three">
<path id="Vector_45" d="M691.665 351.472C692.777 350.122 693.79 348.698 694.696 347.213L673.327 343.859L696.439 344.018C698.656 339.407 699.866 334.413 699.996 329.34C700.127 324.267 699.174 319.222 697.196 314.513L666.197 329.892L694.772 309.797C692.095 305.367 688.493 301.512 684.189 298.473C679.885 295.433 674.973 293.273 669.758 292.128C664.543 290.984 659.137 290.878 653.877 291.819C648.618 292.76 643.617 294.726 639.188 297.596C634.758 300.465 630.994 304.176 628.131 308.498C625.268 312.819 623.367 317.658 622.546 322.713C621.725 327.768 622.002 332.931 623.36 337.879C624.719 342.827 627.128 347.454 630.439 351.472C628.707 353.575 627.219 355.851 625.999 358.26L653.732 372.024L624.181 362.534C622.106 368.403 621.593 374.673 622.69 380.778C623.787 386.884 626.458 392.631 630.462 397.502C625.943 402.994 623.132 409.591 622.351 416.539C621.569 423.487 622.848 430.504 626.041 436.79C629.234 443.075 634.213 448.375 640.409 452.083C646.604 455.791 653.766 457.757 661.075 457.757C668.384 457.757 675.546 455.791 681.741 452.083C687.936 448.375 692.915 443.075 696.109 436.79C699.302 430.504 700.581 423.487 699.799 416.539C699.017 409.591 696.206 402.994 691.688 397.502C697.087 390.938 700.022 382.83 700.022 374.48C700.022 366.13 697.087 358.022 691.688 351.458L691.665 351.472Z" fill="#F9A826"/>
<path id="Vector_46" opacity="0.1" d="M622.104 374.494C622.09 382.847 625.027 390.96 630.439 397.516C625.921 403.009 623.11 409.606 622.328 416.553C621.546 423.501 622.825 430.519 626.018 436.804C629.212 443.09 634.191 448.389 640.386 452.097C646.581 455.805 653.743 457.771 661.052 457.771C668.361 457.771 675.523 455.805 681.718 452.097C687.914 448.389 692.893 443.09 696.086 436.804C699.28 430.519 700.558 423.501 699.777 416.553C698.995 409.606 696.184 403.009 691.665 397.516C696.886 391.185 622.104 370.314 622.104 374.494Z" fill="black"/>
<path id="Vector_47" d="M366.519 417.249C365.754 416.33 365.056 415.361 364.427 414.352L379.158 412.034L363.245 412.15C361.719 408.971 360.887 405.529 360.798 402.033C360.71 398.537 361.367 395.06 362.73 391.815L384.098 402.377L364.397 388.526C366.242 385.475 368.725 382.819 371.691 380.725C374.657 378.631 378.042 377.143 381.636 376.355C385.23 375.567 388.955 375.494 392.579 376.143C396.203 376.791 399.648 378.146 402.701 380.124C405.753 382.101 408.346 384.659 410.319 387.636C412.292 390.614 413.603 393.948 414.169 397.432C414.734 400.915 414.544 404.472 413.609 407.882C412.673 411.291 411.013 414.48 408.732 417.249C409.915 418.701 410.931 420.27 411.763 421.929L392.661 431.426L413.044 424.906C414.475 428.951 414.829 433.273 414.074 437.481C413.318 441.689 411.477 445.651 408.717 449.008C411.833 452.793 413.771 457.341 414.31 462.13C414.85 466.919 413.969 471.757 411.767 476.09C409.566 480.423 406.134 484.076 401.864 486.633C397.593 489.189 392.656 490.544 387.618 490.544C382.579 490.544 377.643 489.189 373.372 486.633C369.101 484.076 365.669 480.423 363.468 476.09C361.267 471.757 360.386 466.919 360.926 462.13C361.465 457.341 363.403 452.793 366.519 449.008C362.798 444.483 360.775 438.895 360.775 433.139C360.775 427.384 362.798 421.796 366.519 417.271V417.249Z" fill="#F9A826"/>
<path id="Vector_48" opacity="0.1" d="M414.461 433.092C414.471 438.851 412.447 444.443 408.717 448.964C411.833 452.75 413.771 457.298 414.31 462.087C414.85 466.876 413.969 471.714 411.768 476.047C409.567 480.38 406.135 484.033 401.864 486.589C397.593 489.145 392.656 490.501 387.618 490.501C382.58 490.501 377.643 489.145 373.372 486.589C369.101 484.033 365.669 480.38 363.468 476.047C361.267 471.714 360.386 466.876 360.926 462.087C361.465 457.298 363.403 452.75 366.519 448.964C362.919 444.618 414.461 430.238 414.461 433.092Z" fill="black"/>
<path id="Vector_49" d="M69.5605 335.535C70.673 334.184 71.6858 332.761 72.5914 331.276L51.2232 327.922L74.3343 328.081C76.5513 323.47 77.7619 318.476 77.8922 313.403C78.0225 308.33 77.0697 303.285 75.092 298.576L44.0929 313.955L72.6672 293.86C69.9906 289.43 66.3882 285.575 62.0847 282.536C57.7811 279.496 52.8686 277.336 47.6535 276.191C42.4384 275.047 37.0326 274.941 31.773 275.882C26.5135 276.822 21.513 278.789 17.0834 281.658C12.6538 284.528 8.89005 288.239 6.02684 292.561C3.16363 296.882 1.26234 301.721 0.44155 306.776C-0.379245 311.831 -0.10195 316.994 1.25613 321.941C2.61421 326.889 5.02396 331.517 8.33513 335.535C6.60298 337.638 5.11417 339.914 3.89477 342.323L31.628 356.087L2.07619 346.597C0.0011768 352.466 -0.511103 358.736 0.585672 364.841C1.68245 370.947 4.3537 376.694 8.35786 381.565C3.83906 387.057 1.02804 393.654 0.246183 400.602C-0.535669 407.549 0.7432 414.567 3.93658 420.853C7.12996 427.138 12.109 432.438 18.3043 436.146C24.4997 439.853 31.6614 441.82 38.9705 441.82C46.2797 441.82 53.4414 439.853 59.6368 436.146C65.8321 432.438 70.8111 427.138 74.0045 420.853C77.1979 414.567 78.4767 407.549 77.6949 400.602C76.913 393.654 74.102 387.057 69.5832 381.565C74.9825 375.001 77.9179 366.893 77.9179 358.543C77.9179 350.192 74.9825 342.084 69.5832 335.521L69.5605 335.535Z" fill="#F9A826"/>
<path id="Vector_50" opacity="0.1" d="M-6.54571e-06 358.557C-0.0146499 366.91 2.9225 375.022 8.33513 381.579C3.81633 387.072 1.00531 393.669 0.223456 400.616C-0.558396 407.564 0.720473 414.582 3.91385 420.867C7.10723 427.153 12.0862 432.452 18.2816 436.16C24.477 439.868 31.6386 441.834 38.9478 441.834C46.257 441.834 53.4187 439.868 59.614 436.16C65.8094 432.452 70.7884 427.153 73.9818 420.867C77.1752 414.582 78.454 407.564 77.6722 400.616C76.8903 393.669 74.0793 387.072 69.5605 381.579C74.7813 375.248 -6.54571e-06 354.377 -6.54571e-06 358.557Z" fill="black"/>
</g>
</g>
</g>
<defs>
<clipPath id="clip0">
<rect width="700" height="546" fill="white"/>
</clipPath>
</defs>
</svg>
