<svg width="698" height="486" viewBox="0 0 698 486" fill="none" xmlns="http://www.w3.org/2000/svg">
<g id="undraw_push_notifications_im0o 1">
<g clip-path="url(#clip0)">
<g id="Group 3">
<path id="Vector" d="M294.944 403.956C293.616 407.651 293.799 411.722 295.453 415.283C297.108 418.844 300.1 421.608 303.779 422.973L430.903 469.829C432.752 470.51 434.717 470.817 436.685 470.731C438.653 470.645 440.584 470.168 442.367 469.328C444.149 468.488 445.746 467.302 447.066 465.839C448.386 464.375 449.402 462.664 450.055 460.803L584.404 78.0679C585.138 75.977 585.395 73.7483 585.158 71.545C584.92 69.3417 584.194 67.2194 583.031 65.3333C581.869 63.4471 580.3 61.8449 578.439 60.6436C576.578 59.4424 574.473 58.6726 572.276 58.3905L438.579 41.2257C435.228 40.7792 431.824 41.4973 428.937 43.26C426.051 45.0226 423.856 47.7232 422.719 50.9105L294.944 403.956Z" fill="#3F3D56"/>
<path id="Vector_2" d="M578.077 60.416C577.944 61.4527 577.703 62.4726 577.358 63.4591L445.966 450.77C445.313 452.631 444.297 454.342 442.977 455.806C441.657 457.269 440.06 458.455 438.277 459.295C436.495 460.135 434.564 460.612 432.596 460.698C430.628 460.784 428.662 460.477 426.814 459.796L296.104 410.169C295.218 409.841 294.365 409.428 293.558 408.937C292.703 415.655 297.178 420.54 303.779 422.973L430.903 469.829C432.751 470.51 434.717 470.817 436.685 470.731C438.653 470.645 440.584 470.168 442.367 469.328C444.149 468.488 445.746 467.302 447.066 465.839C448.386 464.375 449.402 462.664 450.055 460.803L584.404 78.0679C585.534 74.8458 585.522 71.3327 584.37 68.1184C583.218 64.9041 580.996 62.1844 578.077 60.416V60.416Z" fill="#F9A826"/>
<path id="Vector_3" d="M555.659 75.1638L541.893 73.5322C543.955 74.9739 545.469 77.0721 546.188 79.485C546.907 81.8979 546.788 84.4833 545.852 86.8202C544.915 89.1571 543.215 91.1076 541.029 92.3542C538.844 93.6009 536.301 94.07 533.814 93.6854L443.089 79.7244C441.028 79.4088 439.096 78.5199 437.515 77.159C435.934 75.7982 434.767 74.0201 434.146 72.0274C433.526 70.0348 433.477 67.9078 434.006 65.8888C434.535 63.8699 435.62 62.0402 437.137 60.6084L430.044 59.7678C429.124 59.6587 428.194 59.8687 427.41 60.3626C426.626 60.8565 426.034 61.6046 425.734 62.4821L305.285 398.573C305.11 399.085 305.039 399.626 305.077 400.165C305.114 400.705 305.258 401.231 305.502 401.714C305.745 402.196 306.082 402.625 306.494 402.976C306.905 403.326 307.382 403.59 307.897 403.753L430.266 444.705C431.27 445.023 432.358 444.937 433.299 444.466C434.241 443.995 434.963 443.175 435.311 442.181L559.006 80.5333C559.207 79.96 559.277 79.3488 559.21 78.7449C559.143 78.1411 558.942 77.5599 558.62 77.0445C558.299 76.529 557.866 76.0924 557.353 75.7668C556.841 75.4413 556.262 75.2352 555.659 75.1638V75.1638Z" fill="white"/>
<path id="Vector_4" d="M346.367 317.363L448.66 349.736L536.123 103.62L424.602 89.3376L346.367 317.363Z" fill="#E6E6E6"/>
<path id="Vector_5" d="M549.305 147.563C549.982 147.782 550.717 147.731 551.358 147.422C551.998 147.112 552.495 146.568 552.745 145.901L560.309 124.203C560.544 123.526 560.501 122.783 560.19 122.138C559.879 121.492 559.324 120.997 558.649 120.759C557.972 120.541 557.236 120.591 556.596 120.901C555.955 121.21 555.458 121.755 555.208 122.422L547.644 144.12C547.409 144.797 547.452 145.54 547.763 146.185C548.075 146.831 548.629 147.326 549.305 147.563V147.563Z" fill="#3F3D56"/>
<path id="Vector_6" d="M536.563 184.116C537.24 184.351 537.982 184.308 538.627 183.997C539.272 183.685 539.767 183.13 540.004 182.454L547.568 160.755C547.803 160.078 547.759 159.336 547.448 158.691C547.136 158.046 546.581 157.551 545.905 157.315C545.23 157.079 544.488 157.122 543.843 157.432C543.198 157.743 542.703 158.298 542.466 158.974L534.902 180.673C534.667 181.35 534.71 182.092 535.021 182.738C535.333 183.383 535.887 183.879 536.563 184.116V184.116Z" fill="#3F3D56"/>
<path id="Vector_7" d="M383.381 389.953C392.45 385.571 396.253 374.661 391.875 365.584C387.497 356.508 376.596 352.701 367.527 357.083C358.458 361.464 354.655 372.375 359.033 381.451C363.41 390.528 374.312 394.334 383.381 389.953Z" fill="#F9A826"/>
</g>
<g id="park-selecionado">
<path id="Vector_8" d="M444.579 107.605H212.107V153.541H444.579V107.605Z" fill="#E6E6E6"/>
<path id="Vector_9" d="M217.063 148.581H439.623V112.565H217.063V148.581Z" fill="white"/>
<path id="Vector_10" d="M236.546 143.996C244.118 143.996 250.256 137.853 250.256 130.275C250.256 122.697 244.118 116.554 236.546 116.554C228.974 116.554 222.836 122.697 222.836 130.275C222.836 137.853 228.974 143.996 236.546 143.996Z" fill="#F9A826"/>
<path id="Vector_11" d="M404.641 124.906H269.331V127.889H404.641V124.906Z" fill="#F9A826"/>
<path id="Vector_12" d="M404.641 132.661H269.331V135.644H404.641V132.661Z" fill="#F9A826"/>
</g>
<g id="cabeca">
<path id="Vector_13" d="M55.4975 128.431C69.4765 128.431 80.8087 117.09 80.8087 103.099C80.8087 89.1088 69.4765 77.7673 55.4975 77.7673C41.5186 77.7673 30.1864 89.1088 30.1864 103.099C30.1864 117.09 41.5186 128.431 55.4975 128.431Z" fill="#FFB8B8"/>
<path id="Vector_14" d="M20.0616 141.942L50.4351 147.008L58.0289 119.987L36.0922 113.232L20.0616 141.942Z" fill="#FFB8B8"/>
</g>
<g id="Group 5">
<g id="Group 4">
<path id="Vector_15" d="M523.895 476.143H56.294V474.365H524.217L523.895 476.143Z" fill="#3F3D56"/>
<g id="Group 2">
<path id="Vector_16" d="M444.579 253.012H212.107V298.948H444.579V253.012Z" fill="#E6E6E6"/>
<path id="Vector_17" d="M444.579 180.428H212.107V226.364H444.579V180.428Z" fill="#E6E6E6"/>
<path id="Vector_18" d="M217.063 221.564H439.623V185.548H217.063V221.564Z" fill="white"/>
<path id="Vector_19" d="M217.063 293.988H439.623V257.972H217.063V293.988Z" fill="white"/>
<path id="Vector_20" d="M236.546 217.415C244.118 217.415 250.256 211.272 250.256 203.694C250.256 196.116 244.118 189.973 236.546 189.973C228.974 189.973 222.836 196.116 222.836 203.694C222.836 211.272 228.974 217.415 236.546 217.415Z" fill="#CCCCCC"/>
<path id="Vector_21" d="M404.641 198.325H269.331V201.308H404.641V198.325Z" fill="#CCCCCC"/>
<path id="Vector_22" d="M404.641 206.081H269.331V209.063H404.641V206.081Z" fill="#CCCCCC"/>
<path id="Vector_23" d="M404.641 270.909H269.331V273.892H404.641V270.909Z" fill="#CCCCCC"/>
<path id="Vector_24" d="M404.641 278.665H269.331V281.648H404.641V278.665Z" fill="#CCCCCC"/>
<g id="Group 1">
<path id="Vector_25" d="M10.4278 481.552L16.425 482.257C21.1622 485.116 26.7222 486.192 32.8801 485.973C33.7397 485.947 34.5776 485.697 35.3108 485.247C36.044 484.797 36.6471 484.164 37.0603 483.409V483.409C37.4188 482.747 37.6197 482.01 37.6475 481.258C37.6753 480.505 37.5291 479.756 37.2204 479.069C36.9117 478.382 36.4487 477.776 35.8676 477.298C35.2864 476.819 34.6028 476.481 33.8699 476.31L29.3129 475.248L18.3169 464.485L11.6833 452.469L2.04745 453.575L0.0414784 468.837C-0.212995 471.891 0.728034 474.924 2.66593 477.296C4.60382 479.669 7.38695 481.195 10.4278 481.552V481.552Z" fill="#2F2E41"/>
<path id="Vector_26" d="M103.832 473.831L109.71 475.215C114.091 478.595 119.492 480.298 125.635 480.783C126.492 480.855 127.353 480.702 128.133 480.339C128.912 479.976 129.584 479.415 130.08 478.712V478.712C130.512 478.095 130.795 477.387 130.908 476.642C131.022 475.898 130.962 475.137 130.733 474.419C130.505 473.702 130.114 473.047 129.591 472.505C129.068 471.963 128.427 471.55 127.718 471.296L123.312 469.721L113.613 457.774L108.391 445.081H98.6915L94.9611 460.014C94.3607 463.019 94.9503 466.14 96.6055 468.718C98.2607 471.296 100.852 473.129 103.832 473.831Z" fill="#2F2E41"/>
<path id="Vector_27" d="M108.651 445.925L97.6828 447.614L80.3869 360.218L50.4353 309.132L14.156 457.746L0.656745 460.28C2.17046 376.589 -5.21777 271.227 11.6249 258.469L85.0272 266.912L117.088 353.041L108.651 445.925Z" fill="#2F2E41"/>
<path id="Vector_28" d="M7.40637 261.846L88.4021 269.446C81.9087 246.848 75.9594 224.33 80.8087 201.894C86.9667 181.863 81.023 169.952 64.7783 160.518L53.8102 136.031L24.2805 132.653C16.4605 145.237 13.2617 160.152 15.2332 174.839C19.4408 206.777 18.3046 236.413 7.40637 261.846Z" fill="#F9A826"/>
</g>
</g>
</g>
<path id="Vector_29" d="M236.546 290C244.118 290 250.256 283.856 250.256 276.278C250.256 268.7 244.118 262.557 236.546 262.557C228.974 262.557 222.836 268.7 222.836 276.278C222.836 283.856 228.974 290 236.546 290Z" fill="#CCCCCC"/>
</g>
<g id="braco">
<path id="Vector_30" d="M59.7161 287.178L59.1564 306.782C59.0793 309.484 60.0281 312.115 61.8118 314.145C63.5954 316.175 66.0815 317.454 68.7692 317.723V317.723C70.4906 317.895 72.2281 317.646 73.8322 316.997C75.4363 316.349 76.8589 315.32 77.9778 313.999C79.0966 312.679 79.8781 311.106 80.255 309.416C80.632 307.726 80.5931 305.97 80.1417 304.298L75.7464 288.022L63.0909 218.782L63.9346 178.251L36.936 177.406L41.9983 223.004L59.7161 287.178Z" fill="#FFB8B8"/>
<path id="Vector_31" d="M35.2486 181.628C45.0303 177.899 55.8403 177.899 65.622 181.628L63.9346 147.852C63.9346 144.269 62.5123 140.833 59.9807 138.299C57.4491 135.765 54.0155 134.342 50.4353 134.342V134.342C46.8551 134.342 43.4215 135.765 40.8899 138.299C38.3583 140.833 36.936 144.269 36.936 147.852L35.2486 181.628Z" fill="#F9A826"/>
</g>
<path id="cabelo" d="M45.5446 74.3506C54.189 73.7529 64.1835 73.588 65.435 75.8668C74.3865 75.4478 82.1825 78.5729 85.7783 85.8453C86.0854 86.475 86.2509 87.1644 86.2629 87.865C86.275 88.5656 86.1334 89.2603 85.8482 89.9002C85.563 90.5401 85.141 91.1096 84.6121 91.5687C84.0831 92.0277 83.4601 92.3651 82.7867 92.557C78.2457 93.8674 71.3241 95.4884 66.2739 94.9707C55.7855 107.312 60.1985 129.821 70.3791 142.971L61.1795 144.858L43.7225 120.527L49.2309 147.309L27.9869 150.787L20.5775 116.751C19.0197 108.673 19.4096 100.338 21.7148 92.4406C21.9611 91.643 22.2582 90.8621 22.6043 90.1025C24.6506 85.6485 27.8638 81.8322 31.9028 79.0588C35.9419 76.2854 40.656 74.6584 45.5446 74.3506Z" fill="#2F2E41"/>
</g>
</g>
<defs>
<clipPath id="clip0">
<rect width="698" height="486" fill="white"/>
</clipPath>
</defs>
</svg>
