<svg width="893" height="580" viewBox="0 0 893 580" fill="none" xmlns="http://www.w3.org/2000/svg">
<path id="nuvem1" d="M729.244 57.8955C648.444 23.4955 621.655 10.8956 602.244 40.8955C591.244 57.8955 612.844 80.0956 583.244 76.8955C553.644 73.6955 562.91 90.8956 571.244 99.8956C648.577 106.229 859.244 110.896 880.244 109.896C901.244 108.896 797.244 26.8956 794.244 40.8955C791.244 54.8955 829.244 100.896 729.244 57.8955Z" fill="#90D4E2"/>
<g id="undraw_fitness_stats_sht6 1">
<g clip-path="url(#clip0)">
<g id="estatico">
<path id="Vector 1" d="M250 15C142 15 57 357 32 565H865C793 37.0001 613 357 557 357C501 357 482.261 15 250 15Z" fill="#E6F7F4"/>
<path id="Vector" d="M4.34961 563.74H892.35V565.74H4.34961V563.74Z" fill="#3F3D56"/>
</g>
<g id="person">
<path id="Vector_2" d="M248.081 404.998C248.081 404.998 229.225 434.33 222.939 436.425C216.654 438.52 183.131 457.377 178.941 476.233L149.609 513.946L164.275 532.802C164.275 532.802 231.32 461.567 250.176 455.281C269.033 448.996 287.889 417.569 287.889 417.569L248.081 404.998Z" fill="#9F616A"/>
<path id="Vector_3" d="M396.837 356.809C396.837 356.809 436.646 363.094 430.36 388.236C424.075 413.378 363.315 465.757 363.315 465.757L361.22 478.328L338.173 482.518L327.697 472.043L329.792 465.757C329.792 465.757 354.934 442.71 357.03 434.33C359.125 425.949 382.171 392.427 392.647 390.332L377.981 381.951L396.837 356.809Z" fill="#9F616A"/>
<path id="Vector_4" d="M155.894 513.946C155.894 513.946 164.275 501.375 151.704 503.47C139.133 505.565 130.752 507.66 130.752 516.041C130.752 524.422 141.228 583.086 153.799 578.896C166.37 574.705 155.894 555.849 155.894 555.849C155.894 555.849 162.18 539.088 166.37 536.993C170.56 534.897 170.56 524.422 166.37 524.422C162.18 524.422 153.799 518.136 155.894 513.946Z" fill="#2F2E41"/>
<path id="Vector_5" d="M333.983 467.852C333.983 467.852 333.983 457.377 325.602 467.852C317.221 478.328 313.031 486.709 321.412 492.994C329.792 499.28 359.125 513.946 359.125 513.946C359.125 513.946 390.552 520.231 386.362 505.565C386.362 505.565 365.41 495.089 365.41 486.709C365.41 478.328 365.41 463.662 359.125 467.852C352.839 472.043 333.983 474.138 333.983 467.852Z" fill="#2F2E41"/>
<g id="roupa">
<path id="Vector_6" d="M386.362 270.907C386.362 270.907 392.647 224.814 403.123 237.385C413.599 249.956 403.123 268.812 403.123 268.812L394.742 279.288L386.362 273.003V270.907Z" fill="#9F616A"/>
<path id="Vector_7" opacity="0.1" d="M361.22 285.574C361.22 285.574 382.171 262.527 386.362 266.717C390.552 270.907 403.123 273.003 401.028 281.383C398.933 289.764 354.934 317.001 354.934 317.001L361.22 285.574Z" fill="#F9A826"/>
<path id="Vector_8" d="M241.796 283.478V300.24C241.796 300.24 239.701 337.952 252.272 335.857C264.843 333.762 258.557 302.335 258.557 302.335L256.462 283.478L241.796 283.478Z" fill="#9F616A"/>
<path id="Vector_9" d="M294.175 310.715C294.175 310.715 264.843 314.906 266.938 356.809C266.938 356.809 229.225 394.522 239.701 407.093C250.176 419.664 273.223 442.71 281.604 436.425C289.984 430.139 315.126 381.951 315.126 381.951C315.126 381.951 373.791 402.902 384.267 392.427C394.742 381.951 405.218 356.809 405.218 356.809L352.839 329.572L294.175 310.715Z" fill="#2F2E41"/>
<path id="Vector_10" d="M354.934 191.291C354.934 191.291 321.412 180.816 315.126 197.577C308.841 214.338 294.175 245.766 296.27 266.717C298.365 287.669 302.555 283.478 296.27 289.764C289.984 296.049 285.794 291.859 287.889 300.24C289.984 308.62 292.08 308.62 289.984 312.811C287.889 317.001 315.126 331.667 338.173 333.762L361.22 335.857C361.22 335.857 361.22 298.144 365.41 289.764C369.6 281.383 377.981 264.622 377.981 258.336V241.706C377.981 230.636 375.092 219.759 369.6 210.148V210.148C369.6 210.148 357.03 191.291 354.934 191.291Z" fill="#F9A826"/>
<path id="Vector_11" d="M329.792 199.672C329.792 199.672 252.272 205.957 243.891 226.909C235.51 247.861 231.32 289.764 239.701 289.764C248.081 289.764 258.557 293.954 260.652 289.764C262.747 285.574 271.128 243.67 273.223 243.67C275.318 243.67 338.173 237.385 338.173 237.385C338.173 237.385 365.41 203.862 329.792 199.672Z" fill="#F9A826"/>
<path id="Vector_12" d="M361.22 285.574C361.22 285.574 382.171 262.527 386.362 266.717C390.552 270.907 403.123 273.003 401.028 281.383C398.933 289.764 354.934 317.001 354.934 317.001L361.22 285.574Z" fill="#F9A826"/>
</g>
<g id="cabeca">
<path id="Vector_13" d="M379.488 191.579C365.726 193.423 353.075 183.761 351.231 169.998C349.387 156.235 359.049 143.584 372.812 141.74C386.574 139.897 399.226 149.559 401.07 163.321C402.913 177.084 393.251 189.735 379.488 191.579Z" fill="#9F616A"/>
<path id="Vector_14" d="M357.03 168.245C357.03 168.245 342.363 191.291 338.173 193.387C333.983 195.482 367.505 216.433 367.505 216.433C367.505 216.433 367.505 189.196 377.981 182.911L357.03 168.245Z" fill="#9F616A"/>
<path id="Vector_15" d="M376.324 160.348C376.324 160.348 381.397 147.97 391 156.844C400.604 165.719 411.593 145.574 409.005 141.937C406.416 138.299 399.674 143.366 386.634 140.955C373.594 138.545 348.414 133.449 348.02 161.128C347.625 188.808 356.843 184.677 356.843 184.677C356.843 184.677 358.021 160.039 362.923 166.414L367.825 172.789L371.388 173.176L376.324 160.348Z" fill="#2F2E41"/>
</g>
</g>
<circle id="sol" cx="816" cy="76" r="76" fill="#FCBD58"/>
<path id="nuvem2" d="M813.709 132.072C774.075 140.944 825.476 154.485 761.07 154.485H737.537C719.206 152.593 724.944 162.766 730.105 168.089C777.997 171.835 876.877 173.474 889.882 172.882C902.887 172.291 853.344 123.2 813.709 132.072Z" fill="#E6F7F4"/>
</g>
</g>
<defs>
<clipPath id="clip0">
<rect width="892.35" height="579.11" transform="matrix(-1 0 0 1 892.35 0)" fill="white"/>
</clipPath>
</defs>
</svg>
